PathFileType	4	(X/Y/Z)	Trial11_HipL_markers_cropped.trc
DataRate	CameraRate	NumFrames	NumMarkers	Units	OrigDataRate	OrigDataStartFrame	OrigNumFrames
200	200	7	27	m	200	37	101
Frame#	Time	R_ASIS			L_ASIS			Sacral			L_Thigh_Superior			L_Thigh_Posterior			L_Thigh_Inferior			L_Thigh_Lateral			L_Shank_Posterior			L_Shank_Superior			L_Shank_Lateral			L_Shank_Inferior			L_Midfoot_Superior			L_Heel			L_Midfoot_Lateral			L_Toe			R_Thigh_Posterior			R_Thigh_Superior			R_Thigh_Lateral			R_Thigh_Inferior			R_Shank_Posterior			R_Shank_Superior			R_Shank_Lateral			R_Shank_Inferior			R_Midfoot_Superior			R_Heel			R_Midfoot_Lateral			R_Toe
		X1	Y1	Z1	X2	Y2	Z2	X3	Y3	Z3	X4	Y4	Z4	X5	Y5	Z5	X6	Y6	Z6	X7	Y7	Z7	X8	Y8	Z8	X9	Y9	Z9	X10	Y10	Z10	X11	Y11	Z11	X12	Y12	Z12	X13	Y13	Z13	X14	Y14	Z14	X15	Y15	Z15	X16	Y16	Z16	X17	Y17	Z17	X18	Y18	Z18	X19	Y19	Z19	X20	Y20	Z20	X21	Y21	Z21	X22	Y22	Z22	X23	Y23	Z23	X24	Y24	Z24	X25	Y25	Z25	X26	Y26	Z26	X27	Y27	Z27

38	   0.185	    1.06189489569261	    0.96819511856123	    0.65019346804122	    1.03337933928644	    1.00695943754275	    0.40033470718839	    0.85933543770073	    1.05146711041103	    0.56612323755440	    1.01591294875988	    0.78145687447872	    0.30841681695372	    0.94191322893772	    0.76887135330244	    0.31501929669286	    1.02846119843837	    0.68758329806177	    0.31712404138604	    0.94945479996776	    0.67938891657432	    0.32254662839090	    0.91337017674295	    0.41721263576780	    0.31951970209922	    0.98456626074227	    0.39102599939157	    0.31740852271465	    0.90162821223414	    0.34756839933749	    0.31373405261586	    0.96669893590518	    0.33556211781851	    0.31344399845145	    1.00508424054933	    0.11614437926516	    0.36831744808862	    0.83719440376453	    0.06819303001064	    0.41382924558356	    0.92550843300583	    0.05462427946305	    0.33268403745924	    1.12540359805983	    0.06567511733124	    0.34467681497813	    0.97893599568001	    0.75689902305310	    0.69442094490132	    1.05322571347175	    0.75853862725655	    0.68098699930868	    0.98400974214371	    0.65816428252416	    0.68159479623255	    1.05441951076012	    0.66306535332249	    0.67201121130886	    0.94923542108963	    0.33957982907171	    0.64596899064125	    1.02302481672400	    0.33054014721847	    0.62699093048409	    0.94515671687982	    0.27099945254592	    0.62627301231080	    1.01553061348552	    0.27336210457228	    0.60983871069593	    1.04278612123908	    0.09025236335805	    0.52899713679789	    0.87442598233787	    0.04321673953275	    0.49447980121448	    0.96932341094119	    0.01519416874513	    0.57123151428184	    1.16611571572428	    0.05102833933882	    0.53985190669916
39	   0.190	    1.06016708530118	    0.96890172017734	    0.65207094841455	    1.03233320556222	    1.00729470412052	    0.40208360950161	    0.85714047192280	    1.04965233300087	    0.56698479668929	    1.02127439590141	    0.78272519250537	    0.31000469986654	    0.94746405491931	    0.76840062391753	    0.31493613983669	    1.03596019412416	    0.68920771910440	    0.31774410423793	    0.95687107530640	    0.67911570753504	    0.32183661495327	    0.92708290765623	    0.41616930247623	    0.31647325657298	    0.99896898323157	    0.39183635483364	    0.31601593220756	    0.91701857198963	    0.34646820840038	    0.31000621237731	    0.98246491441322	    0.33599379855840	    0.31126877874670	    1.02426485714383	    0.11720889250469	    0.36574020362374	    0.85635425588037	    0.06542636240114	    0.40724717247857	    0.94696661423547	    0.05412971452799	    0.32797876329873	    1.14624893895423	    0.06947385425794	    0.34492063905238	    0.97842808581405	    0.75667429436056	    0.69616409216884	    1.05274870631570	    0.75829659498060	    0.68265539640150	    0.98362243885521	    0.65791069250459	    0.68287486582555	    1.05408968328912	    0.66282872878635	    0.67366858453305	    0.94926510811790	    0.33936404372601	    0.64696534060957	    1.02308837364110	    0.33027796023992	    0.62809337797021	    0.94513104446700	    0.27082544537225	    0.62716628386846	    1.01551461636075	    0.27315684916746	    0.61082413569616	    1.04275332518042	    0.09009792527523	    0.52934104793275	    0.87439267213765	    0.04330304407033	    0.49462329661007	    0.96915542704042	    0.01481827893063	    0.57066440675377	    1.16610522193648	    0.05093973483538	    0.54003299774686
40	   0.195	    1.05776676403504	    0.96951272090934	    0.65413339472538	    1.03058062886938	    1.00817282022285	    0.40424368522458	    0.85410502917912	    1.04766404381715	    0.56830106853606	    1.02723338937858	    0.78552086569676	    0.31039960091602	    0.95372329602566	    0.76863370216905	    0.31437376883404	    1.04487690817898	    0.69241726601291	    0.31708317481666	    0.96606236095797	    0.67970175032947	    0.32014394294621	    0.94596370049450	    0.41592781738105	    0.31232913318798	    1.01878012940281	    0.39456423873431	    0.31244379915409	    0.93868101887450	    0.34586314665516	    0.30509373788255	    1.00451253939190	    0.33814691089213	    0.30697832787592	    1.05410478674529	    0.12057037793110	    0.35948160858678	    0.88776630718187	    0.06196869586116	    0.39854229890347	    0.97986370651540	    0.05515660279193	    0.32014403021939	    1.17822647443469	    0.07798069162970	    0.33960377913492	    0.97713140458619	    0.75620988916938	    0.69772716155708	    1.05157428357561	    0.75815209951900	    0.68495233663749	    0.98281164471388	    0.65747191801907	    0.68472785619743	    1.05334672120811	    0.66267268234349	    0.67613324188680	    0.94868636251645	    0.33926120874346	    0.64856136978498	    1.02279288381505	    0.32983235260460	    0.63024079624492	    0.94457939152180	    0.27066947486141	    0.62878799856839	    1.01519651540129	    0.27271038655093	    0.61300785302775	    1.04288186732656	    0.08979598743094	    0.53037428807959	    0.87459929078118	    0.04339927992763	    0.49481306950097	    0.96900746701008	    0.01398216792891	    0.57083258362601	    1.16629356381401	    0.05042352873920	    0.54070010927753
41	   0.200	    1.05515452079532	    0.97029787916549	    0.65595591116130	    1.02782337599033	    1.00932626119582	    0.40649182476888	    0.85021585839546	    1.04479200093778	    0.56980065635167	    1.03340100892296	    0.78926735166054	    0.31017662696600	    0.96068294251092	    0.76907218946442	    0.31376604360405	    1.05520611708861	    0.69682822744532	    0.31568949057628	    0.97696835566596	    0.68069918599912	    0.31811063995352	    0.97073252555320	    0.41684202893075	    0.30707959150558	    1.04426913730995	    0.39870427962292	    0.30772571555260	    0.96691408489676	    0.34608889848651	    0.29907636105957	    1.03300662482990	    0.34182196328392	    0.30138079720712	    1.09384017696702	    0.12665986697626	    0.35151476014511	    0.93047516828974	    0.05883272914588	    0.38858920459161	    1.02337210409459	    0.05804084254238	    0.31077591903050	    1.22011832174216	    0.09078064032506	    0.33212056412554	    0.97567821972133	    0.75573757410872	    0.69926081408556	    1.05033251368485	    0.75801289243483	    0.68759255462752	    0.98193071413182	    0.65702153714495	    0.68661288807857	    1.05258105028182	    0.66250711402657	    0.67903232551404	    0.94773519676638	    0.33916190834961	    0.65080187050503	    1.02205264563199	    0.32949523393654	    0.63332487173669	    0.94372106568653	    0.27044192514352	    0.63132842368821	    1.01452858818212	    0.27229078976583	    0.61629421935442	    1.04320414972054	    0.08956222599803	    0.53138420305249	    0.87463162435968	    0.04391144523340	    0.49540085876387	    0.96888781324135	    0.01326401540118	    0.57119367651621	    1.16684182374067	    0.04916696329879	    0.54141485163287
42	   0.205	    1.05264955202573	    0.97083609013689	    0.65735831788325	    1.02409362396980	    1.01013460035400	    0.40820066602728	    0.84626454704264	    1.04167483288415	    0.57110877697260	    1.04026387756785	    0.79432642347053	    0.31048990444463	    0.96891815760672	    0.77026515219505	    0.31251628497245	    1.06735688503906	    0.70323346148473	    0.31462005629109	    0.99025297007310	    0.68263849656404	    0.31573895222726	    1.00114992740621	    0.41985018672777	    0.30159274614151	    1.07555802508794	    0.40600976373819	    0.30266748509021	    1.00163327712189	    0.34856647545343	    0.29298244839862	    1.06788431551543	    0.34862409705975	    0.29553531036696	    1.14198499538970	    0.13702800531687	    0.34317328112239	    0.98284059026948	    0.05892271423251	    0.37848939175220	    1.07594238925559	    0.06478419362451	    0.30121087432988	    1.27031663952271	    0.10902193865952	    0.32405702525592	    0.97392599567046	    0.75531350370090	    0.70052719905060	    1.04868903243201	    0.75791509954089	    0.68995614592234	    0.98087747788430	    0.65660495487089	    0.68819283323107	    1.05159377277245	    0.66242936523525	    0.68166913348125	    0.94683736374321	    0.33911486900291	    0.65227235585607	    1.02138803452279	    0.32927786501312	    0.63551668009419	    0.94304124695005	    0.27031601131359	    0.63316649736235	    1.01406498239652	    0.27198511920969	    0.61882664071133	    1.04339177312510	    0.08938240101772	    0.53162231148038	    0.87497659617255	    0.04410426818601	    0.49568898765074	    0.96880546169409	    0.01287118680022	    0.57138425180184	    1.16708426953577	    0.04875909004488	    0.54174306284165
43	   0.210	    1.05020608985905	    0.97139618468658	    0.65833508662369	    1.01976250299905	    1.01093570731565	    0.40975513626094	    0.84224089109444	    1.03914469007394	    0.57271260710923	    1.04669547440102	    0.80103372015366	    0.31081211839580	    0.97720904318085	    0.77219708499543	    0.31163025793426	    1.07990513103392	    0.71203713888633	    0.31334808257790	    1.00444713504053	    0.68625652574734	    0.31338843525040	    1.03596325342735	    0.42506657933942	    0.29659002153356	    1.11134900498434	    0.41780308089186	    0.29803279656247	    1.04266045784498	    0.35437827510972	    0.28710709186368	    1.10851941222558	    0.35987617612818	    0.29023221398892	    1.20017939856661	    0.15449228446688	    0.33540881336376	    1.04801413196750	    0.06303954230352	    0.36914574186833	    1.14040316516744	    0.07765092571754	    0.29228048161590	    1.33047740504591	    0.13743491444408	    0.31643083105760	    0.97238956911767	    0.75499779506995	    0.70120668044396	    1.04726986249160	    0.75806646755227	    0.69127863735488	    0.98003127266214	    0.65628917680176	    0.68871486559226	    1.05077885706626	    0.66255518853476	    0.68297532075362	    0.94572225029571	    0.33905267997075	    0.65151213462912	    1.02039813371831	    0.32888138996009	    0.63598332341230	    0.94205375089284	    0.27032722278590	    0.63202264592940	    1.01326005171452	    0.27177368070845	    0.61901548593460	    1.04360688470314	    0.08881287752147	    0.53142873264776	    0.87522869951014	    0.04418274570141	    0.49594681013416	    0.96881205412784	    0.01286737398950	    0.57139151191207	    1.16728304455970	    0.04786929257208	    0.54206618631447
44	   0.215	    1.04759488202229	    0.97246993397624	    0.65905734325393	    1.01496869587904	    1.01231846800338	    0.41123528161328	    0.83782393446216	    1.03641361657408	    0.57444232296181	    1.05223519033478	    0.80898052376692	    0.31098578614478	    0.98493972857581	    0.77515179055882	    0.31133311012151	    1.09171209570910	    0.72258082677758	    0.31254404954494	    1.01830348002430	    0.69148221584346	    0.31226129856743	    1.07263449643714	    0.43276084480167	    0.29326189362917	    1.14839731623247	    0.43380251398323	    0.29394747343166	    1.08694656917974	    0.36355558743167	    0.28302002705431	    1.15173141434872	    0.37593499749928	    0.28574933756544	    1.26581595444018	    0.18097523665019	    0.32886776121422	    1.12453754880740	    0.07371788918947	    0.36281970203418	    1.21437755302271	    0.09843115513970	    0.28550713019052	    1.39706929491532	    0.17792917161393	    0.30936425979736	    0.97180469111886	    0.75499511978680	    0.70167226601559	    1.04666607796247	    0.75870914144161	    0.69151447701645	    0.98030573859260	    0.65635698939817	    0.68914292764608	    1.05096798475179	    0.66326015398245	    0.68317106799420	    0.94519000127580	    0.33895723889763	    0.65082837205786	    1.01988693103309	    0.32848763400434	    0.63617819594409	    0.94154508743176	    0.27032131972929	    0.63110878779300	    1.01266655424701	    0.27139315802654	    0.61886764450091	    1.04384447781366	    0.08841868707345	    0.53150049111550	    0.87539390980736	    0.04427965371059	    0.49584317944408	    0.96884314143818	    0.01292734391223	    0.57152176758743	    1.16751759719831	    0.04701621812147	    0.54252645541622
